<svg xmlns="http://www.w3.org/2000/svg" xmlns:xlink="http://www.w3.org/1999/xlink" viewBox="0 0 670.808 483.86437"><defs><style>.cls-1{fill:url(#linear-gradient);}.cls-2{isolation:isolate;}.cls-3{clip-path:url(#clip-path);}.cls-4,.cls-5,.cls-58{mix-blend-mode:color-dodge;}.cls-4{fill:url(#linear-gradient-3);}.cls-10,.cls-11,.cls-12,.cls-13,.cls-14,.cls-15,.cls-16,.cls-17,.cls-18,.cls-19,.cls-20,.cls-21,.cls-22,.cls-23,.cls-24,.cls-25,.cls-26,.cls-27,.cls-28,.cls-29,.cls-30,.cls-31,.cls-32,.cls-33,.cls-34,.cls-35,.cls-36,.cls-37,.cls-38,.cls-39,.cls-40,.cls-41,.cls-42,.cls-43,.cls-44,.cls-45,.cls-46,.cls-47,.cls-48,.cls-49,.cls-50,.cls-51,.cls-52,.cls-53,.cls-54,.cls-55,.cls-56,.cls-57,.cls-6,.cls-7,.cls-8,.cls-9{fill:none;stroke-linecap:round;stroke-linejoin:round;stroke-width:4.57363px;}.cls-6{stroke:#000;}.cls-7{stroke:#030303;}.cls-8{stroke:#050505;}.cls-9{stroke:#080808;}.cls-10{stroke:#0a0a0a;}.cls-11{stroke:#0d0d0d;}.cls-12{stroke:#0f0f0f;}.cls-13{stroke:#121212;}.cls-14{stroke:#141414;}.cls-15{stroke:#171717;}.cls-16{stroke:#191919;}.cls-17{stroke:#1c1c1c;}.cls-18{stroke:#1f1f1f;}.cls-19{stroke:#212121;}.cls-20{stroke:#242424;}.cls-21{stroke:#262626;}.cls-22{stroke:#292929;}.cls-23{stroke:#2b2b2b;}.cls-24{stroke:#2e2e2e;}.cls-25{stroke:#303030;}.cls-26{stroke:#333;}.cls-27{stroke:#363636;}.cls-28{stroke:#383838;}.cls-29{stroke:#3b3b3b;}.cls-30{stroke:#3d3d3d;}.cls-31{stroke:#404040;}.cls-32{stroke:#424242;}.cls-33{stroke:#454545;}.cls-34{stroke:#474747;}.cls-35{stroke:#4a4a4a;}.cls-36{stroke:#4c4c4c;}.cls-37{stroke:#4f4f4f;}.cls-38{stroke:#525252;}.cls-39{stroke:#545454;}.cls-40{stroke:#575757;}.cls-41{stroke:#595959;}.cls-42{stroke:#5c5c5c;}.cls-43{stroke:#5e5e5e;}.cls-44{stroke:#616161;}.cls-45{stroke:#636363;}.cls-46{stroke:#666;}.cls-47{stroke:#696969;}.cls-48{stroke:#6b6b6b;}.cls-49{stroke:#6e6e6e;}.cls-50{stroke:#707070;}.cls-51{stroke:#737373;}.cls-52{stroke:#757575;}.cls-53{stroke:#787878;}.cls-54{stroke:#7a7a7a;}.cls-55{stroke:#7d7d7d;}.cls-56{stroke:#7f7f7f;}.cls-57{stroke:#828282;}.cls-58{fill:url(#linear-gradient-4);}</style><linearGradient id="linear-gradient" x1="234" y1="-128.56522" x2="234" y2="250.60406" gradientUnits="userSpaceOnUse"><stop offset="0" stop-color="#0e5df8"/><stop offset="0.3103" stop-color="#0f4ee0"/><stop offset="0.96307" stop-color="#1026a3"/><stop offset="1" stop-color="#10249f"/></linearGradient><clipPath id="clip-path" transform="translate(117.32265 142.63215)"><rect class="cls-1" width="468" height="288"/></clipPath><linearGradient id="linear-gradient-3" x1="237.62156" y1="14.92519" x2="237.62156" y2="174.42718" gradientUnits="userSpaceOnUse"><stop offset="0"/><stop offset="0.22947" stop-color="#050505"/><stop offset="0.49258" stop-color="#131313"/><stop offset="0.77113" stop-color="#292929"/><stop offset="1" stop-color="#424242"/></linearGradient><linearGradient id="linear-gradient-4" x1="721.33665" y1="-231.94243" x2="565.35944" y2="-556.2115" gradientTransform="translate(-532.4471 283.42) rotate(23.67859)" xlink:href="#linear-gradient-3"/></defs><title>aa</title><g class="cls-2"><g id="Layer_1" data-name="Layer 1"><rect class="cls-1" x="117.32265" y="142.63215" width="468" height="288"/><g class="cls-3"><path class="cls-4" d="M-2.2238-118.3062c64.2864-40.6749,119.8402-25.1078,179.7839,8.3931C228.851-81.2479,278.1653-37.9255,336.1692-32.8523c57.8263,5.0578,108.9557-13.7148,159.4085,15.544,67.6441,39.2289,69.7303,110.3444,38.4154,162.5485-43.4183,72.3821-127.2891,76.6589-189.4398,38.7113-51.4314-31.4017-105.2951-65.8346-170.1745-55.9151-59.7567,9.1355-124.2429,63.8294-186.0314,34.0004C-81.7289,128.206-121.124-43.0781-2.2238-118.3062Z" transform="translate(117.32265 142.63215)"/><g class="cls-5"><path class="cls-6" d="M162.9174,26.8546c-6.8791,16.5274-42.8314,13.7601-44.3999,29.2868-1.8904,18.7093,27.4277,17.337,39.9565,13.4045,31.1465-9.7753,32.9978,12.4307,59.0178,18.9489,19.4282,4.8673,25.7202-17.1858,47.247-8.9123,20.0049,7.6876,27.2968-19.7423,12.8815-28.4188-19.0311-11.455-40.4444,6.3699-54.6638-14.9104C210.412,17.4794,182.3097-19.7365,162.9174,26.8546Z" transform="translate(117.32265 142.63215)"/><path class="cls-7" d="M160.7932,25.4354c-7.2585,17.439-45.1937,14.519-46.8486,30.9021-1.9947,19.7412,28.9404,18.2931,42.1601,14.1438,32.8643-10.3145,34.8177,13.1163,62.2727,19.9939,20.4997,5.1357,27.1388-18.1336,49.8528-9.4038,21.1082,8.1116,28.8023-20.8311,13.592-29.9861-20.0807-12.0868-42.6751,6.7212-57.6787-15.7328C210.9072,15.5432,181.255-23.7253,160.7932,25.4354Z" transform="translate(117.32265 142.63215)"/><path class="cls-8" d="M158.669,24.0163c-7.6379,18.3504-47.5559,15.2779-49.2974,32.5173-2.099,20.773,30.4531,19.2493,44.3639,14.883,34.582-10.8536,36.6375,13.8019,65.5276,21.039,21.5712,5.4042,28.5573-19.0814,52.4585-9.8953,22.2115,8.5355,30.3078-21.9199,14.3024-31.5535-21.1303-12.7185-44.9056,7.0726-60.6934-16.5551C211.4024,13.607,180.2003-27.714,158.669,24.0163Z" transform="translate(117.32265 142.63215)"/><path class="cls-9" d="M156.5448,22.5971c-8.0174,19.262-49.9182,16.0368-51.7461,34.1326-2.2033,21.8048,31.9657,20.2054,46.5675,15.6223,36.2998-11.3927,38.4574,14.4874,68.7825,22.0841,22.6427,5.6726,29.9759-20.0293,55.0644-10.3869,23.3147,8.9595,31.8132-23.0088,15.0128-33.1208-22.1799-13.3503-47.1362,7.4238-63.7083-17.3775C211.8976,11.6707,179.1456-31.7027,156.5448,22.5971Z" transform="translate(117.32265 142.63215)"/><path class="cls-10" d="M154.4205,21.178c-8.3967,20.1735-52.2803,16.7957-54.1948,35.7477-2.3075,22.8368,33.4785,21.1617,48.7712,16.3616,38.0176-11.9318,40.2773,15.1731,72.0375,23.1292,23.7142,5.941,31.3943-20.9771,57.6701-10.8784,24.4181,9.3835,33.3187-24.0976,15.7232-34.6882-23.2295-13.9821-49.3668,7.7752-66.723-18.1998C212.3928,9.7345,178.0909-35.6915,154.4205,21.178Z" transform="translate(117.32265 142.63215)"/><path class="cls-11" d="M152.2963,19.7588c-8.7761,21.0851-54.6426,17.5546-56.6435,37.363-2.4118,23.8686,34.9911,22.1178,50.9748,17.1009,39.7355-12.471,42.0972,15.8586,75.2924,24.1742,24.7858,6.2095,32.8129-21.9249,60.2759-11.3699,25.5214,9.8075,34.8242-25.1864,16.4337-36.2555-24.2791-14.6139-51.5974,8.1264-69.7379-19.0222C212.888,7.7983,177.0362-39.6802,152.2963,19.7588Z" transform="translate(117.32265 142.63215)"/><path class="cls-12" d="M150.1721,18.3397c-9.1555,21.9965-57.0048,18.3135-59.0923,38.9782-2.516,24.9004,36.5038,23.074,53.1785,17.8402,41.4533-13.0101,43.9171,16.5441,78.5474,25.2192,25.8572,6.478,34.2314-22.8727,62.8816-11.8614,26.6247,10.2315,36.3296-26.2753,17.1441-37.8229-25.3287-15.2456-53.8279,8.4778-72.7527-19.8445C213.3832,5.8621,175.9815-43.6689,150.1721,18.3397Z" transform="translate(117.32265 142.63215)"/><path class="cls-13" d="M148.0479,16.9205C138.513,39.8286,88.6808,35.9929,86.5069,57.514c-2.6204,25.9323,38.0165,24.0301,55.3822,18.5794,43.171-13.5492,45.7369,17.2298,81.8022,26.2644,26.9288,6.7463,35.65-23.8206,65.4874-12.353,27.728,10.6554,37.8351-27.3641,17.8546-39.3902-26.3783-15.8774-56.0585,8.8291-75.7675-20.6668C213.8783,3.9259,174.9268-47.6577,148.0479,16.9205Z" transform="translate(117.32265 142.63215)"/><path class="cls-14" d="M145.9237,15.5014C136.0094,39.321,84.1944,35.3327,81.9339,57.7101c-2.7246,26.9641,39.5292,24.9863,57.5859,19.3187,44.8888-14.0884,47.5568,17.9153,85.0572,27.3094,28.0002,7.0148,37.0684-24.7684,68.0931-12.8445,28.8313,11.0794,39.3406-28.4529,18.5651-40.9576-27.428-16.5091-58.2892,9.1804-78.7824-21.4891C214.3735,1.9897,173.8721-51.6464,145.9237,15.5014Z" transform="translate(117.32265 142.63215)"/><path class="cls-15" d="M143.7994,14.0822C133.5057,38.8133,79.7079,34.6724,77.361,57.9061c-2.8289,27.996,41.0418,25.9425,59.7895,20.058,46.6066-14.6275,49.3767,18.601,88.3121,28.3545,29.0718,7.2832,38.487-25.7162,70.699-13.3361,29.9346,11.5035,40.846-29.5416,19.2754-42.5248-28.4775-17.1409-60.5197,9.5317-81.7971-22.3115C214.8687.0535,172.8174-55.6351,143.7994,14.0822Z" transform="translate(117.32265 142.63215)"/><path class="cls-16" d="M141.6752,12.6631C131.0021,38.3057,75.2214,34.0122,72.788,58.1022c-2.9331,29.0279,42.5546,26.8986,61.9932,20.7973,48.3244-15.1666,51.1966,19.2865,91.5671,29.3995,30.1432,7.5517,39.9055-26.664,73.3047-13.8276,31.0379,11.9275,42.3515-30.6305,19.9859-44.0922-29.5272-17.7727-62.7503,9.883-84.812-23.1338C215.3639-1.8827,171.7627-59.6239,141.6752,12.6631Z" transform="translate(117.32265 142.63215)"/><path class="cls-17" d="M139.551,11.2439c-11.0525,26.5542-68.816,22.108-71.336,47.0544-3.0373,30.0597,44.0673,27.8548,64.1969,21.5366,50.0422-15.7058,53.0165,19.972,94.822,30.4445,31.2148,7.8202,41.3241-27.6118,75.9105-14.3191,32.1412,12.3515,43.857-31.7193,20.6963-45.6596C293.264,31.8963,258.8598,60.5351,236.014,26.3446,215.8591-3.8189,170.708-63.6126,139.551,11.2439Z" transform="translate(117.32265 142.63215)"/><path class="cls-18" d="M137.4268,9.8248C125.9949,37.2905,66.2485,32.6917,63.6421,58.4944c-3.1416,31.0915,45.5799,28.8109,66.4005,22.2758,51.76-16.2449,54.8364,20.6577,98.077,31.4897,32.2862,8.0885,42.7425-28.5597,78.5162-14.8107,33.2445,12.7754,45.3624-32.8081,21.4068-47.2269C296.4162,31.1861,260.8311,60.808,237.201,25.4438,216.3543-5.7551,169.6533-67.6013,137.4268,9.8248Z" transform="translate(117.32265 142.63215)"/><path class="cls-19" d="M135.3026,8.4056C123.4913,36.7828,61.7621,32.0314,59.0691,58.6904c-3.2459,32.1234,47.0926,29.7672,68.6043,23.0152,53.4777-16.784,56.6563,21.3432,101.3318,32.5347,33.3578,8.357,44.1611-29.5075,81.122-15.3022,34.3478,13.1994,46.8679-33.897,22.1172-48.7943-32.6759-19.6679-69.442,10.937-93.8563-25.6008C216.8495-7.6913,168.5986-71.59,135.3026,8.4056Z" transform="translate(117.32265 142.63215)"/><path class="cls-20" d="M133.1783,6.9865c-12.1906,29.2887-75.9027,24.3847-78.6821,51.9-3.3502,33.1553,48.6053,30.7233,70.8079,23.7544,55.1955-17.3231,58.4762,22.0288,104.5868,33.5798,34.4293,8.6255,45.5796-30.4553,83.7277-15.7937,35.4512,13.6234,48.3734-34.9858,22.8277-50.3616-33.7256-20.2997-71.6727,11.2883-96.8712-26.4232C217.3447-9.6275,167.5439-75.5788,133.1783,6.9865Z" transform="translate(117.32265 142.63215)"/><path class="cls-21" d="M131.0541,5.5673C118.484,35.7676,52.7892,30.7109,49.9232,59.0826c-3.4544,34.1871,50.118,31.6795,73.0116,24.4937,56.9133-17.8623,60.2961,22.7144,107.8418,34.6248,35.5007,8.8939,46.9981-31.4031,86.3335-16.2852,36.5544,14.0474,49.8788-36.0746,23.538-51.929-34.7751-20.9314-73.9032,11.6397-99.886-27.2455C217.8399-11.5637,166.4892-79.5675,131.0541,5.5673Z" transform="translate(117.32265 142.63215)"/><path class="cls-22" d="M128.9299,4.1482C115.9804,35.26,48.3027,30.0507,45.3503,59.2787c-3.5587,35.2189,51.6306,32.6356,75.2152,25.233,58.6311-18.4014,62.116,23.3999,111.0967,35.6699,36.5723,9.1623,48.4166-32.351,88.9393-16.7768,37.6577,14.4714,51.3843-37.1634,24.2485-53.4963-35.8248-21.5633-76.1338,11.9909-102.9008-28.0679C218.3351-13.4999,165.4345-83.5562,128.9299,4.1482Z" transform="translate(117.32265 142.63215)"/><path class="cls-23" d="M126.8057,2.729C113.4768,34.7523,43.8163,29.3904,40.7773,59.4748,37.1144,95.7256,93.9207,93.0665,118.1962,85.447c60.3489-18.9405,63.9359,24.0855,114.3517,36.715,37.6437,9.4308,49.8351-33.2988,91.545-17.2683,38.761,14.8953,52.8898-38.2523,24.9589-55.0637-36.8743-22.195-78.3644,12.3423-105.9156-28.8902C218.8303-15.4361,164.3798-87.545,126.8057,2.729Z" transform="translate(117.32265 142.63215)"/><path class="cls-24" d="M124.6815,1.3099C110.9732,34.2447,39.3298,28.7302,36.2044,59.6708c-3.7673,37.2827,54.656,34.548,79.6225,26.7116,62.0667-19.4797,65.7558,24.7711,117.6066,37.76,38.7153,9.6992,51.2537-34.2466,94.1508-17.7598,39.8643,15.3193,54.3953-39.3411,25.6694-56.631-37.9239-22.8268-80.595,12.6935-108.9304-29.7125C219.3255-17.3723,163.3251-91.5337,124.6815,1.3099Z" transform="translate(117.32265 142.63215)"/><path class="cls-25" d="M122.5572-.1093C108.4696,33.7371,34.8434,28.0699,31.6314,59.8669,27.7599,98.1814,87.8001,95.371,113.4577,87.3177c63.7844-20.0187,67.5756,25.4567,120.8615,38.8051,39.7867,9.9677,52.6722-35.1944,96.7565-18.2513,40.9677,15.7433,55.9007-40.4299,26.3799-58.1984C318.482,26.2146,274.63,62.718,245.5103,19.1383,219.8207-19.3086,162.2704-95.5224,122.5572-.1093Z" transform="translate(117.32265 142.63215)"/><path class="cls-26" d="M120.433-1.5284C105.966,33.2294,30.3569,27.4097,27.0585,60.063c-3.9758,39.3464,57.6814,36.4603,84.0299,28.1901,65.5022-20.5579,69.3955,26.1422,124.1164,39.8502,40.8583,10.236,54.0907-36.1423,99.3623-18.7429,42.071,16.1673,57.4062-41.5188,27.0903-59.7657-40.0231-24.0903-85.0562,13.3962-114.96-31.3572C220.3158-21.2448,161.2157-99.5112,120.433-1.5284Z" transform="translate(117.32265 142.63215)"/><path class="cls-27" d="M118.3088-2.9475C103.4623,32.7218,25.8705,26.7494,22.4855,60.2591c-4.08,40.3782,59.1941,37.4164,86.2336,28.9293,67.22-21.097,71.2154,26.8279,127.3714,40.8953,41.9298,10.5045,55.5092-37.0901,101.968-19.2344,43.1743,16.5913,58.9117-42.6076,27.8008-61.3331-41.0728-24.722-87.2868,13.7475-117.9749-32.1795C220.811-23.181,160.161-103.4999,118.3088-2.9475Z" transform="translate(117.32265 142.63215)"/><path class="cls-28" d="M116.1846-4.3667C100.9587,32.2142,21.384,26.0892,17.9125,60.4551c-4.1842,41.4101,60.7068,38.3727,88.4373,29.6687,68.9378-21.6362,73.0353,27.5134,130.6263,41.9403,43.0013,10.773,56.9278-38.0379,104.5739-19.7259,44.2775,17.0152,60.4171-43.6964,28.5111-62.9004-42.1223-25.3539-89.5173,14.0988-120.9897-33.0019C221.3062-25.1172,159.1063-107.4886,116.1846-4.3667Z" transform="translate(117.32265 142.63215)"/><path class="cls-29" d="M114.0603-5.7858C98.4551,31.7066,16.8976,25.4289,13.3396,60.6512,9.0511,103.0931,75.5591,99.98,103.9805,91.0592c70.6556-22.1753,74.8552,28.199,133.8813,42.9853,44.0728,11.0414,58.3463-38.9857,107.1796-20.2174,45.3808,17.4392,61.9226-44.7852,29.2216-64.4678-43.172-25.9856-91.7479,14.4501-124.0045-33.8242C221.8014-27.0534,158.0516-111.4774,114.0603-5.7858Z" transform="translate(117.32265 142.63215)"/><path class="cls-30" d="M111.9361-7.205C95.9515,31.1989,12.4111,24.7687,8.7666,60.8473c-4.3928,43.4738,63.7322,40.2849,92.8447,31.1472,72.3733-22.7144,76.675,28.8846,137.1361,44.0305,45.1443,11.3098,59.7648-39.9336,109.7854-20.709,46.4842,17.8632,63.4281-45.8741,29.932-66.0351-44.2215-26.6174-93.9785,14.8014-127.0193-34.6466C222.2966-28.9896,156.9969-115.4661,111.9361-7.205Z" transform="translate(117.32265 142.63215)"/><path class="cls-31" d="M109.8119-8.6241C93.4479,30.6913,7.9247,24.1084,4.1937,61.0434-.3034,105.549,69.4385,102.2845,99.242,92.9299c74.0911-23.2536,78.4949,29.5701,140.3911,45.0755,46.2158,11.5783,61.1833-40.8814,112.3911-21.2005,47.5875,18.2872,64.9336-46.9629,30.6425-67.6025-45.2712-27.2491-96.2091,15.1528-130.0341-35.4689C222.7918-30.9258,155.9422-119.4548,109.8119-8.6241Z" transform="translate(117.32265 142.63215)"/><path class="cls-32" d="M107.6877-10.0433C90.9442,30.1837,3.4382,23.4482-.3793,61.2395c-4.6013,45.5374,66.7576,42.1972,97.252,32.6257,75.8089-23.7926,80.3148,30.2558,143.646,46.1206,47.2873,11.8467,62.6019-41.8292,114.9969-21.692,48.6908,18.7112,66.439-48.0517,31.3529-69.1698-46.3207-27.8809-98.4396,15.504-133.0489-36.2913C223.287-32.862,154.8875-123.4436,107.6877-10.0433Z" transform="translate(117.32265 142.63215)"/><path class="cls-33" d="M105.5635-11.4624C88.4406,29.676-1.0483,22.7879-4.9522,61.4355-9.6578,108.0049,63.318,104.589,94.5034,94.8006c77.5268-24.3318,82.1347,30.9413,146.901,47.1656,48.3588,12.1152,64.0204-42.777,117.6026-22.1835,49.7941,19.1351,67.9445-49.1406,32.0634-70.7372C343.7,20.5329,290.4001,64.9009,255.0067,11.9319,223.7822-34.7982,153.8328-127.4323,105.5635-11.4624Z" transform="translate(117.32265 142.63215)"/><path class="cls-34" d="M103.4392-12.8816C85.937,29.1684-5.5347,22.1277-9.5252,61.6316-14.335,109.2328,60.2577,105.7412,92.1341,95.736c79.2446-24.871,83.9546,31.6268,150.156,48.2107,49.4302,12.3836,65.4388-43.7249,120.2084-22.6752,50.8973,19.5592,69.4499-50.2293,32.7737-72.3044C346.8523,19.8226,292.3714,65.1737,256.1937,11.0312,224.2774-36.7344,152.7781-131.421,103.4392-12.8816Z" transform="translate(117.32265 142.63215)"/><path class="cls-35" d="M101.315-14.3007C83.4334,28.6608-10.0212,21.4674-14.0981,61.8277c-4.9142,48.633,71.2956,45.0658,103.8629,34.8436,80.9624-25.41,85.7745,32.3125,153.4109,49.2558,50.5018,12.652,66.8574-44.6727,122.8142-23.1667,52.0007,19.9832,70.9554-51.3181,33.4842-73.8718-49.4696-29.7762-105.1314,16.558-142.0933-38.7582C224.7726-38.6706,151.7234-135.4098,101.315-14.3007Z" transform="translate(117.32265 142.63215)"/><path class="cls-36" d="M99.1908-15.7199C80.9298,28.1532-14.5076,20.8072-18.6711,62.0238c-5.0184,49.6649,72.8083,46.0219,106.0667,35.5829,82.6801-25.9492,87.5943,32.998,156.6658,50.3008,51.5733,12.9205,68.2759-45.6205,125.4199-23.6582,53.104,20.4072,72.4609-52.4069,34.1947-75.4391C353.1568,18.4022,296.3139,65.7195,258.5678,9.2296,225.2678-40.6068,150.6687-139.3985,99.1908-15.7199Z" transform="translate(117.32265 142.63215)"/><path class="cls-37" d="M97.0666-17.139C78.4262,27.6455-18.9941,20.1469-23.244,62.2198c-5.1227,50.6968,74.3209,46.9781,108.2703,36.3222,84.3979-26.4883,89.4142,33.6836,159.9207,51.3459,52.6448,13.1889,69.6945-46.5683,128.0257-24.1497,54.2073,20.8312,73.9664-53.4958,34.9051-77.0065C356.309,17.692,298.2852,65.9923,259.7548,8.3288,225.763-42.543,149.614-143.3872,97.0666-17.139Z" transform="translate(117.32265 142.63215)"/><path class="cls-38" d="M94.9424-18.5582C75.9225,27.1379-23.4805,19.4867-27.817,62.4159c-5.2269,51.7286,75.8337,47.9343,110.474,37.0615,86.1157-27.0274,91.2341,34.3692,163.1757,52.391,53.7163,13.4573,71.1129-47.5162,130.6314-24.6413,55.3106,21.2551,75.4718-54.5846,35.6156-78.5739C359.4613,16.9818,300.2565,66.2652,260.9419,7.428,226.2582-44.4792,148.5593-147.3759,94.9424-18.5582Z" transform="translate(117.32265 142.63215)"/><path class="cls-39" d="M92.8181-19.9773C73.4189,26.6303-27.967,18.8264-32.39,62.612c-5.3311,52.7605,77.3464,48.8904,112.6777,37.8008,87.8335-27.5666,93.0541,35.0547,166.4306,53.436,54.7878,13.7258,72.5315-48.464,133.2372-25.1328,56.4139,21.6791,76.9773-55.6734,36.326-80.1412C362.6135,16.2716,302.2277,66.538,262.1289,6.5272,226.7533-46.4154,147.5046-151.3647,92.8181-19.9773Z" transform="translate(117.32265 142.63215)"/><path class="cls-40" d="M90.6939-21.3965C70.9153,26.1226-32.4534,18.1662-36.9629,62.8081c-5.4354,53.7923,78.859,49.8466,114.8813,38.54,89.5513-28.1057,94.874,35.7403,169.6856,54.4811,55.8593,13.9942,73.95-49.4118,135.843-25.6243,57.5172,22.1031,78.4827-56.7623,37.0364-81.7086C365.7658,15.5613,304.199,66.8109,263.316,5.6264,227.2485-48.3516,146.4499-155.3534,90.6939-21.3965Z" transform="translate(117.32265 142.63215)"/><path class="cls-41" d="M88.5697-22.8156C68.4117,25.615-36.9399,17.5059-41.5359,63.0042c-5.5397,54.8241,80.3718,50.8027,117.0851,39.2793,91.269-28.6449,96.6938,36.4259,172.9404,55.5261,56.9308,14.2627,75.3686-50.3596,138.4488-26.1158,58.6205,22.5271,79.9882-57.8511,37.7468-83.2759C368.9181,14.8511,306.1703,67.0838,264.503,4.7256,227.7437-50.2879,145.3952-159.3421,88.5697-22.8156Z" transform="translate(117.32265 142.63215)"/><path class="cls-42" d="M86.4455-24.2348C65.9081,25.1074-41.4263,16.8457-46.1088,63.2002c-5.644,55.856,81.8844,51.759,119.2887,40.0186,92.9868-29.1839,98.5137,37.1115,176.1954,56.5712,58.0023,14.5312,76.787-51.3074,141.0545-26.6073,59.7238,22.9511,81.4937-58.9399,38.4573-84.8433C372.0703,14.1409,308.1415,67.3566,265.6901,3.8248,228.2389-52.2241,144.3405-163.3309,86.4455-24.2348Z" transform="translate(117.32265 142.63215)"/><path class="cls-43" d="M84.3213-25.6539C63.4045,24.5998-45.9128,16.1854-50.6818,63.3963c-5.7482,56.8879,83.3971,52.7151,121.4924,40.7579,94.7046-29.7231,100.3336,37.7971,179.4503,57.6163,59.0738,14.7995,78.2056-52.2553,143.6603-27.0989,60.8271,23.375,82.9992-60.0287,39.1677-86.4106C375.2226,13.4307,310.1128,67.6295,266.8771,2.924,228.7341-54.1603,143.2858-167.3196,84.3213-25.6539Z" transform="translate(117.32265 142.63215)"/><path class="cls-44" d="M82.197-27.0731C60.9008,24.0921-50.3992,15.5252-55.2547,63.5924c-5.8525,57.9197,84.9098,53.6712,123.696,41.4971,96.4224-30.2622,102.1535,38.4827,182.7053,58.6614,60.1453,15.068,79.6241-53.2031,146.266-27.5904,61.9304,23.799,84.5047-61.1176,39.8782-87.978-58.916-35.462-125.2067,19.7198-169.2267-46.1592C229.2293-56.0965,142.2311-171.3083,82.197-27.0731Z" transform="translate(117.32265 142.63215)"/><path class="cls-45" d="M80.0728-28.4922C58.3972,23.5845-54.8857,14.8649-59.8277,63.7885-65.7844,122.74,26.5948,118.4159,66.072,106.0249c98.1402-30.8013,103.9734,39.1682,185.9602,59.7064,61.2169,15.3365,81.0427-54.1509,148.8718-28.0819,63.0338,24.223,86.0101-62.2064,40.5886-89.5453C381.5271,12.0103,314.0554,68.1752,269.2512,1.1225,229.7245-58.0327,141.1764-175.2971,80.0728-28.4922Z" transform="translate(117.32265 142.63215)"/><path class="cls-46" d="M77.9486-29.9113C55.8936,23.0769-59.3721,14.2047-64.4006,63.9845c-6.061,59.9835,87.9351,55.5836,128.1033,42.9758,99.858-31.3405,105.7933,39.8538,189.2152,60.7514,62.2883,15.6049,82.4611-55.0987,151.4775-28.5734,64.1371,24.647,87.5156-63.2952,41.2991-91.1127C384.6793,11.3,316.0266,68.4481,270.4382.2217,230.2197-59.9689,140.1217-179.2858,77.9486-29.9113Z" transform="translate(117.32265 142.63215)"/><path class="cls-47" d="M75.8244-31.3305C53.39,22.5692-63.8586,13.5444-68.9736,64.1806c-6.1653,61.0153,89.4478,56.5398,130.3071,43.715,101.5757-31.8796,107.6131,40.5394,192.47,61.7966,63.3599,15.8733,83.8797-56.0466,154.0834-29.065,65.2403,25.071,89.021-64.3841,42.0094-92.68C387.8316,10.5898,317.9979,68.7209,271.6253-.6791,230.7149-61.9051,139.0671-183.2745,75.8244-31.3305Z" transform="translate(117.32265 142.63215)"/><path class="cls-48" d="M73.7002-32.7496C50.8864,22.0616-68.345,12.8842-73.5465,64.3767c-6.2696,62.0471,90.9605,57.4959,132.5107,44.4543,103.2935-32.4187,109.433,41.2249,195.725,62.8416,64.4313,16.1418,85.2982-56.9944,156.6891-29.5565,66.3436,25.4949,90.5265-65.4729,42.7199-94.2474C390.9838,9.8796,319.9692,68.9938,272.8123-1.5799,231.2101-63.8413,138.0124-187.2633,73.7002-32.7496Z" transform="translate(117.32265 142.63215)"/><path class="cls-49" d="M71.5759-34.1688C48.3828,21.554-72.8315,12.2239-78.1195,64.5728c-6.3738,63.079,92.4732,58.4521,134.7144,45.1935,105.0113-32.9578,111.2529,41.9106,198.98,63.8867,65.5028,16.4102,86.7167-57.9422,159.2948-30.048,67.4469,25.9189,92.032-66.5617,43.4304-95.8147C394.1361,9.1694,321.9404,69.2666,273.9994-2.4807,231.7053-65.7775,136.9577-191.252,71.5759-34.1688Z" transform="translate(117.32265 142.63215)"/><path class="cls-50" d="M69.4517-35.5879C45.8791,21.0464-77.318,11.5637-82.6925,64.7689c-6.478,64.1108,93.9859,59.4082,136.9181,45.9328,106.7291-33.497,113.0728,42.5961,202.2349,64.9317,66.5743,16.6787,88.1352-58.89,161.9006-30.5395,68.5503,26.3429,93.5375-67.6505,44.1408-97.3821C397.2883,8.4592,323.9117,69.5395,275.1864-3.3815,232.2005-67.7137,135.903-195.2407,69.4517-35.5879Z" transform="translate(117.32265 142.63215)"/><path class="cls-51" d="M67.3275-37.0071C43.3755,20.5387-81.8044,10.9034-87.2654,64.9649c-6.5823,65.1427,95.4986,60.3644,139.1217,46.6722C160.3032,77.601,166.749,154.9187,257.3462,177.6139c67.6458,16.947,89.5537-59.8379,164.5063-31.0311,69.6536,26.7669,95.0429-68.7394,44.8513-98.9494C400.4406,7.749,325.883,69.8124,276.3735-4.2823,232.6957-69.6499,134.8483-199.2295,67.3275-37.0071Z" transform="translate(117.32265 142.63215)"/><path class="cls-52" d="M65.2033-38.4262C40.8719,20.0311-86.2909,10.2432-91.8384,65.161c-6.6866,66.1745,97.0113,61.3206,141.3255,47.4114,110.1646-34.5752,116.7125,43.9673,208.7447,67.0219,68.7174,17.2155,90.9723-60.7857,167.1121-31.5226,70.7569,27.1909,96.5484-69.8282,45.5617-100.5168C403.5928,7.0387,327.8542,70.0852,277.5605-5.1831,233.1908-71.5861,133.7936-203.2182,65.2033-38.4262Z" transform="translate(117.32265 142.63215)"/><path class="cls-53" d="M63.0791-39.8454C38.3683,19.5235-90.7773,9.5829-96.4113,65.3571c-6.7909,67.2064,98.5239,62.2767,143.5291,48.1507,111.8824-35.1144,118.5324,44.6528,211.9997,68.0669,69.7888,17.484,92.3908-61.7335,169.7179-32.0142,71.8601,27.6149,98.0538-70.9169,46.2721-102.084-68.3624-41.148-145.282,22.8816-196.36-53.5604C233.686-73.5223,132.7389-207.2069,63.0791-39.8454Z" transform="translate(117.32265 142.63215)"/><path class="cls-54" d="M60.9548-41.2645C35.8647,19.0158-95.2638,8.9227-100.9843,65.5532c-6.8951,68.2382,100.0367,63.2329,145.7328,48.8899,113.6002-35.6534,120.3523,45.3384,215.2546,69.112,70.8604,17.7524,93.8093-62.6813,172.3237-32.5057,72.9634,28.0389,99.5593-72.0058,46.9825-103.6514C409.8973,5.6183,331.7968,70.6309,279.9346-6.9847,234.1812-75.4585,131.6842-211.1957,60.9548-41.2645Z" transform="translate(117.32265 142.63215)"/><path class="cls-55" d="M58.8306-42.6837C33.3611,18.5082-99.7502,8.2624-105.5572,65.7492c-6.9994,69.2701,101.5493,64.1891,147.9364,49.6293,115.3181-36.1926,122.1722,46.024,218.5096,70.1571,71.9318,18.0208,95.2278-63.6292,174.9294-32.9973,74.0668,28.4629,101.0648-73.0946,47.693-105.2187C413.0496,4.9081,333.768,70.9038,281.1216-7.8854,234.6764-77.3947,130.6295-215.1844,58.8306-42.6837Z" transform="translate(117.32265 142.63215)"/><path class="cls-56" d="M56.7064-44.1028C30.8574,18.0006-104.2367,7.6022-110.1302,65.9453c-7.1036,70.302,103.062,65.1453,150.1401,50.3686C157.0458,79.5821,164.002,163.0234,261.7744,187.516c73.0034,18.2893,96.6464-64.577,177.5352-33.4888,75.1701,28.8869,102.5703-74.1834,48.4034-106.7861C416.2018,4.1979,335.7393,71.1767,282.3087-8.7862,235.1716-79.3309,129.5748-219.1731,56.7064-44.1028Z" transform="translate(117.32265 142.63215)"/><path class="cls-57" d="M54.5822-45.522C28.3538,17.493-108.7231,6.9419-114.7031,66.1414c-7.2079,71.3338,104.5747,66.1014,152.3437,51.1078,118.7537-37.2709,125.812,47.3952,225.0195,72.2472,74.0748,18.5577,98.0649-65.5248,180.1409-33.9803,76.2734,29.3109,104.0758-75.2722,49.1139-108.3534C419.3541,3.4876,337.7106,71.4495,283.4957-9.687,235.6668-81.2672,128.5201-223.1618,54.5822-45.522Z" transform="translate(117.32265 142.63215)"/></g><path class="cls-58" d="M-2.9962,78.4241c54.1394-39.0692,103.637-28.4034,157.9392-2.2624,46.4637,22.3676,91.9798,57.6807,143.0624,59.0228,50.9262,1.3381,94.7115-17.841,140.4727,5.0915,61.3541,30.7469,66.9848,92.9323,42.3448,140.3377-34.1634,65.7286-107.4053,73.9604-163.8786,44.0421-46.7331-24.7573-95.7591-52.0398-152.0628-39.8807-51.8582,11.1985-105.423,62.5588-161.1449,39.7331C-59.4593,298.6201-103.1295,150.6824-2.9962,78.4241Z" transform="translate(117.32265 142.63215)"/></g></g></g></svg>