<?xml version="1.0" encoding="utf-8"?>
<!-- Generator: Adobe Illustrator 23.0.0, SVG Export Plug-In . SVG Version: 6.00 Build 0)  -->
<svg version="1.1" id="Layer_1" xmlns="http://www.w3.org/2000/svg" xmlns:xlink="http://www.w3.org/1999/xlink" x="0px" y="0px"
	 viewBox="0 0 1706.4 693.4" style="enable-background:new 0 0 1706.4 693.4;" xml:space="preserve">
<style type="text/css">
	.st0{fill:#3AB54A;}
	.st1{fill:#006837;}
	.st2{fill:#01A89E;}
	.st3{fill:#029544;}
	.st4{fill:#80C340;}
	.st5{fill:#F5F1CE;}
	.st6{fill:#FFF957;}
	.st7{fill:#FBAF41;}
	.st8{opacity:0.5;fill:url(#SVGID_1_);stroke:#000000;stroke-miterlimit:10;}
</style>
<title>background</title>
<g>
	<g>
		<g>
			<path class="st0" d="M1706.4,522.6v170.8H0V522.6C560.8,426,1145.6,426,1706.4,522.6z"/>
			<path class="st1" d="M77.3,538.3c-2.1,0-3.8-1.7-3.8-3.8v-78.8c0-2.1,1.7-3.8,3.8-3.8s3.8,1.7,3.8,3.8v78.8
				C81,536.6,79.4,538.3,77.3,538.3z"/>
			<circle class="st2" cx="77.3" cy="434.8" r="54.7"/>
			<path class="st1" d="M1406.1,499.9c-2.1,0-3.8-1.7-3.8-3.8l0,0v-78.8c0-2.1,1.7-3.8,3.8-3.8s3.8,1.7,3.8,3.8v78.8
				C1409.8,498.2,1408.1,499.9,1406.1,499.9z"/>
			
				<ellipse transform="matrix(0.1735 -0.9848 0.9848 0.1735 771.7229 1712.3419)" class="st2" cx="1406" cy="396.4" rx="54.7" ry="54.7"/>
			<path class="st1" d="M293.2,556.7c-2.1,0-3.8-1.7-3.8-3.8l0,0v-66.7c0-2.1,1.7-3.8,3.8-3.8s3.8,1.7,3.8,3.8l0,0V553
				C297,555.1,295.3,556.7,293.2,556.7L293.2,556.7z"/>
			<circle class="st3" cx="293.2" cy="468.6" r="46.3"/>
			<path class="st1" d="M1637.4,535.8c-2.1,0-3.8-1.7-3.8-3.8v-66.7c0-2.1,1.7-3.8,3.8-3.8s3.8,1.7,3.8,3.8v66.7
				C1641.2,534.1,1639.5,535.8,1637.4,535.8z"/>
			<circle class="st3" cx="1637.4" cy="447.7" r="46.3"/>
			<path class="st1" d="M211.9,504.1c-2.1,0-3.8-1.7-3.8-3.8l0,0v-92.3c0-2.1,1.7-3.8,3.8-3.8s3.8,1.7,3.8,3.8v92.2
				C215.7,502.4,214.1,504.1,211.9,504.1C212,504.1,212,504.2,211.9,504.1z"/>
			<circle class="st1" cx="211.9" cy="376" r="44.2"/>
			
				<ellipse transform="matrix(0.1602 -0.9871 0.9871 0.1602 -282.1774 548.3511)" class="st4" cx="181.2" cy="440" rx="19.2" ry="19.2"/>
			<path class="st1" d="M211.9,455.4c-0.5,0-0.9-0.1-1.3-0.2l-30.8-11.6c-1.9-0.9-2.7-3.1-1.9-5c0.8-1.7,2.7-2.6,4.5-2l30.8,11.6
				c1.9,0.7,2.9,2.9,2.2,4.8C214.9,454.4,213.5,455.4,211.9,455.4L211.9,455.4z"/>
			<path class="st1" d="M1518.3,581.3c-2.1,0-3.7-1.7-3.8-3.7c0,0,0,0,0,0v-92.2c0-2.1,1.7-3.8,3.8-3.8s3.8,1.7,3.8,3.8v92.2
				C1522.1,579.6,1520.4,581.3,1518.3,581.3z"/>
			
				<ellipse transform="matrix(0.3827 -0.9239 0.9239 0.3827 518.5953 1682.4768)" class="st1" cx="1518.3" cy="453.2" rx="44.2" ry="44.2"/>
			<circle class="st4" cx="1487.5" cy="517.2" r="19.2"/>
			<path class="st1" d="M1518.3,532.6c-0.5,0-0.9-0.1-1.3-0.2l-30.8-11.6c-2-0.6-3.1-2.7-2.5-4.7s2.7-3.1,4.7-2.5
				c0.2,0,0.3,0.1,0.4,0.2l30.8,11.6c1.9,0.7,2.9,2.9,2.2,4.8C1521.3,531.6,1519.9,532.6,1518.3,532.6L1518.3,532.6z"/>
			<rect x="752.1" y="189.9" class="st2" width="82.2" height="280.4"/>
			<rect x="957.5" y="272.1" class="st3" width="82.2" height="198.2"/>
			<path class="st2" d="M1121.8,470.4h-92.8v-151l18.6-18.5h55.7l18.6,18.5L1121.8,470.4z"/>
			<rect x="638.4" y="315" class="st4" width="82.2" height="155.3"/>
			<rect x="556.2" y="385.8" class="st2" width="56.6" height="84.6"/>
			<rect x="1113.6" y="385.8" class="st1" width="56.6" height="84.6"/>
			<rect x="679.5" y="256.1" class="st3" width="82.2" height="214.2"/>
			<rect x="606.9" y="67.1" class="st1" width="52" height="403.2"/>
			<rect x="808.2" y="301.3" class="st1" width="82.2" height="169"/>
			<rect x="869.8" y="96.8" class="st4" width="102.7" height="373.6"/>
			<rect x="886.6" y="117.9" class="st5" width="17.7" height="21.7"/>
			<rect x="912.3" y="117.9" class="st5" width="17.7" height="21.7"/>
			<rect x="938.1" y="117.9" class="st5" width="17.7" height="21.7"/>
			<rect x="886.6" y="153" class="st5" width="17.7" height="21.7"/>
			<rect x="912.3" y="153" class="st5" width="17.7" height="21.7"/>
			<rect x="938.1" y="153" class="st5" width="17.7" height="21.7"/>
			<rect x="1040.9" y="342.9" class="st5" width="17.7" height="21.7"/>
			<rect x="1066.6" y="342.9" class="st5" width="17.7" height="21.7"/>
			<rect x="1092.3" y="342.9" class="st5" width="17.7" height="21.7"/>
			<rect x="1040.9" y="377.9" class="st5" width="17.7" height="21.7"/>
			<rect x="1066.6" y="377.9" class="st5" width="17.7" height="21.7"/>
			<rect x="1092.3" y="377.9" class="st5" width="17.7" height="21.7"/>
			<rect x="758.6" y="200.1" class="st5" width="17.7" height="21.7"/>
			<rect x="784.3" y="200.1" class="st5" width="17.7" height="21.7"/>
			<rect x="810" y="200.1" class="st5" width="17.7" height="21.7"/>
			<rect x="758.6" y="235.1" class="st5" width="17.7" height="21.7"/>
			<rect x="784.3" y="235.1" class="st5" width="17.7" height="21.7"/>
			<rect x="810" y="235.1" class="st5" width="17.7" height="21.7"/>
			<rect x="611.2" y="82.9" class="st5" width="17.7" height="21.7"/>
			<rect x="636.9" y="82.9" class="st5" width="17.7" height="21.7"/>
			<rect x="611.2" y="117.9" class="st5" width="17.7" height="21.7"/>
			<rect x="636.9" y="117.9" class="st5" width="17.7" height="21.7"/>
			<rect x="886.6" y="188" class="st5" width="17.7" height="21.7"/>
			<rect x="912.3" y="188" class="st5" width="17.7" height="21.7"/>
			<rect x="938.1" y="188" class="st5" width="17.7" height="21.7"/>
			<path class="st1" d="M413.5,486.6L413.5,486.6c-5.1,0-9.2-4.1-9.2-9.2c0-0.1,0-0.3,0-0.4l6.7-161.6h5l6.7,161.6
				c0.2,5.1-3.8,9.4-8.9,9.6C413.7,486.6,413.6,486.6,413.5,486.6z"/>
			<path class="st2" d="M422.7,318.3c0,5.1-4.1,9.3-9.2,9.3c-5.1,0-9.3-4.1-9.3-9.2c0-5.1,4.1-9.3,9.2-9.3c0,0,0,0,0,0
				C418.6,309,422.7,313.1,422.7,318.3C422.7,318.2,422.7,318.2,422.7,318.3z"/>
			<path class="st2" d="M404.2,222.4V263c0,15.4,2.8,30.6,8.2,45l0,0c0.3,0.8,1.2,1.1,1.9,0.8c0.6-0.2,0.9-0.8,0.9-1.4v-40.7
				c0-15.4-2.8-30.6-8.2-45l0,0c-0.3-0.8-1.2-1.1-1.9-0.8C404.6,221.2,404.2,221.8,404.2,222.4z"/>
			<path class="st2" d="M335.1,374.1l35.2-20.3c13.3-7.7,25.1-17.7,34.9-29.6l0,0c0.5-0.6,0.4-1.6-0.2-2.1c-0.5-0.4-1.1-0.5-1.7-0.1
				l-35.2,20.3c-13.3,7.7-25.1,17.7-34.8,29.6l0,0c-0.5,0.7-0.3,1.6,0.3,2.1C334,374.4,334.6,374.4,335.1,374.1z"/>
			<path class="st2" d="M501.1,358.1l-35.2-20.3c-13.3-7.7-27.9-12.9-43.1-15.4l0,0c-0.8-0.1-1.6,0.4-1.7,1.2
				c-0.1,0.6,0.2,1.2,0.7,1.5l35.2,20.3c13.3,7.7,27.9,12.9,43.1,15.4l0,0c0.8,0.2,1.6-0.2,1.8-1
				C502.2,359.2,501.8,358.4,501.1,358.1z"/>
			<path class="st1" d="M1252.9,479.6L1252.9,479.6c-5.1,0-9.2-4.1-9.2-9.2c0-0.1,0-0.3,0-0.4l6.7-161.6h5l6.7,161.6
				c0.2,5.1-3.8,9.4-8.9,9.6C1253.2,479.6,1253,479.6,1252.9,479.6z"/>
			<path class="st2" d="M1262.2,311.3c0,5.1-4.1,9.3-9.2,9.3s-9.3-4.1-9.3-9.2c0-5.1,4.1-9.3,9.2-9.3c0,0,0,0,0,0
				C1258,302,1262.2,306.2,1262.2,311.3z"/>
			<path class="st2" d="M1243.7,215.4v40.7c0,15.4,2.8,30.6,8.2,45l0,0c0.3,0.8,1.1,1.2,1.9,0.9c0.6-0.2,1-0.8,1-1.4v-40.7
				c0-15.4-2.8-30.6-8.2-45l0,0c-0.3-0.8-1.2-1.1-1.9-0.8C1244.1,214.3,1243.7,214.8,1243.7,215.4z"/>
			<path class="st2" d="M1174.5,367.2l35.2-20.3c13.3-7.7,25.1-17.7,34.9-29.6l0,0c0.5-0.6,0.4-1.5-0.2-2.1
				c-0.5-0.4-1.2-0.5-1.7-0.1l-35.2,20.3c-13.3,7.7-25.1,17.7-34.9,29.6l0,0c-0.5,0.6-0.4,1.6,0.2,2.1
				C1173.3,367.5,1174,367.5,1174.5,367.2z"/>
			<path class="st2" d="M1340.5,351.2l-35.2-20.3c-13.3-7.7-27.9-12.9-43.1-15.4l0,0c-0.8-0.1-1.6,0.4-1.7,1.2
				c-0.1,0.6,0.2,1.2,0.7,1.5l35.2,20.3c13.3,7.7,27.9,12.9,43.1,15.4l0,0c0.8,0.2,1.6-0.3,1.8-1.1
				C1341.5,352.2,1341.2,351.5,1340.5,351.2z"/>
			<circle class="st6" cx="1149.7" cy="93.8" r="40.6"/>
			<circle class="st7" cx="1149.7" cy="93.8" r="29.3"/>
		</g>
	</g>
	<linearGradient id="SVGID_1_" gradientUnits="userSpaceOnUse" x1="853.225" y1="-9.094947e-13" x2="853.225" y2="693.4">
		<stop  offset="0" style="stop-color:#FFFFFF"/>
		<stop  offset="5.139107e-02" style="stop-color:#E2E2E2"/>
		<stop  offset="0.154" style="stop-color:#ADADAD"/>
		<stop  offset="0.2609" style="stop-color:#7F7F7F"/>
		<stop  offset="0.3701" style="stop-color:#585858"/>
		<stop  offset="0.482" style="stop-color:#383838"/>
		<stop  offset="0.5975" style="stop-color:#1F1F1F"/>
		<stop  offset="0.7182" style="stop-color:#0E0E0E"/>
		<stop  offset="0.8474" style="stop-color:#030303"/>
		<stop  offset="1" style="stop-color:#000000"/>
	</linearGradient>
	<rect class="st8" width="1706.4" height="693.4"/>
</g>
</svg>
